# xmcd CD database file
#
# Track frame offsets:
#	150
#	26832
#	53812
#	77982
#	101452
#	127195
#	151642
#	177532
#	201400
#	223105
#	244160
#	268315
#	292337
#	315890
#
# Disc length: 4416 seconds
#
# Revision: 8
# Processed by: cddbd v1.5.1PL0 Copyright (c) Steve Scherf et al.
# Submitted via: CDex 1.51
#
DISCID=d7113e0e
DTITLE=???? - the very best of gut year 1994-1997
DYEAR=1998
DGENRE=JPop
TTITLE0=A Flower Is Not A Flower
TTITLE1=?????
TTITLE2=The Other Side Love -featuring Sister M-
TTITLE3=???? ?????
TTITLE4=Moving On
TTITLE5=1919
TTITLE6=Jungle LIVE mix of Untitled 01-2nd Movement Anger
TTITLE7=?????
TTITLE8=Merry Christmas Mr.Lawrence
TTITLE9=TANGO
TTITLE10=Floating Along
TTITLE11=A DAY IN THE PARK
TTITLE12=?????????
TTITLE13=Parolibre
EXTD=YEAR: 1998
EXTT0=
EXTT1=
EXTT2=
EXTT3=
EXTT4=
EXTT5=
EXTT6=
EXTT7=
EXTT8=
EXTT9=
EXTT10=
EXTT11=
EXTT12=
EXTT13=
PLAYORDER=
